{
    "asset" : {
        "generator" : "Khronos glTF Blender I/O v3.3.32",
        "version" : "2.0"
    },
    "scene" : 0,
    "scenes" : [
        {
            "name" : "Scene",
            "nodes" : [
                0,
                1,
                2,
                3,
                4,
                5,
                6
            ]
        }
    ],
    "nodes" : [
        {
            "mesh" : 0,
            "name" : "spec17_body",
            "translation" : [
                0,
                0.3385331630706787,
                0
            ]
        },
        {
            "mesh" : 1,
            "name" : "spec17_wheel",
            "translation" : [
                0.8405627608299255,
                0.04349568486213684,
                1.256400465965271
            ]
        },
        {
            "mesh" : 2,
            "name" : "spec17_windows",
            "translation" : [
                0,
                0.3385331630706787,
                0
            ]
        },
        {
            "mesh" : 3,
            "name" : "spec17_hull",
            "translation" : [
                0,
                0.3385331630706787,
                0
            ]
        },
        {
            "mesh" : 4,
            "name" : "spec17_brakelights",
            "translation" : [
                0,
                0.3385331630706787,
                0
            ]
        },
        {
            "mesh" : 5,
            "name" : "spec17_reverselights",
            "translation" : [
                0.0006517266156151891,
                0.33899450302124023,
                -0.0026910032611340284
            ]
        },
        {
            "mesh" : 6,
            "name" : "spec17_headlights",
            "translation" : [
                0,
                0.3385331630706787,
                0
            ]
        }
    ],
    "materials" : [
        {
            "doubleSided" : true,
            "name" : "spec17_body",
            "pbrMetallicRoughness" : {
                "baseColorTexture" : {
                    "index" : 0
                },
                "metallicFactor" : 0
            }
        },
        {
            "doubleSided" : true,
            "name" : "wheel",
            "pbrMetallicRoughness" : {
                "baseColorTexture" : {
                    "index" : 1
                },
                "metallicFactor" : 0,
                "roughnessFactor" : 0.5
            }
        },
        {
            "alphaMode" : "BLEND",
            "doubleSided" : true,
            "name" : "spec17_windows",
            "pbrMetallicRoughness" : {
                "baseColorTexture" : {
                    "index" : 2
                },
                "metallicFactor" : 0
            }
        }
    ],
    "meshes" : [
        {
            "name" : "Cube.007",
            "primitives" : [
                {
                    "attributes" : {
                        "POSITION" : 0,
                        "TEXCOORD_0" : 1
                    },
                    "indices" : 2,
                    "material" : 0
                }
            ]
        },
        {
            "name" : "Cylinder.001",
            "primitives" : [
                {
                    "attributes" : {
                        "POSITION" : 3,
                        "TEXCOORD_0" : 4
                    },
                    "indices" : 5,
                    "material" : 1
                }
            ]
        },
        {
            "name" : "Cube.001",
            "primitives" : [
                {
                    "attributes" : {
                        "POSITION" : 6,
                        "TEXCOORD_0" : 7
                    },
                    "indices" : 8,
                    "material" : 2
                }
            ]
        },
        {
            "name" : "spec17_hull",
            "primitives" : [
                {
                    "attributes" : {
                        "POSITION" : 9,
                        "TEXCOORD_0" : 10
                    },
                    "indices" : 11,
                    "material" : 0
                }
            ]
        },
        {
            "name" : "Cube.021",
            "primitives" : [
                {
                    "attributes" : {
                        "POSITION" : 12,
                        "TEXCOORD_0" : 13
                    },
                    "indices" : 14,
                    "material" : 0
                }
            ]
        },
        {
            "name" : "Cube.022",
            "primitives" : [
                {
                    "attributes" : {
                        "POSITION" : 15,
                        "TEXCOORD_0" : 16
                    },
                    "indices" : 17,
                    "material" : 0
                }
            ]
        },
        {
            "name" : "Cube.020",
            "primitives" : [
                {
                    "attributes" : {
                        "POSITION" : 18,
                        "TEXCOORD_0" : 19
                    },
                    "indices" : 20,
                    "material" : 0
                }
            ]
        }
    ],
    "textures" : [
        {
            "sampler" : 0,
            "source" : 0
        },
        {
            "sampler" : 1,
            "source" : 1
        },
        {
            "sampler" : 0,
            "source" : 2
        }
    ],
    "images" : [
        {
            "bufferView" : 3,
            "mimeType" : "image/png",
            "name" : "spec17_body"
        },
        {
            "bufferView" : 7,
            "mimeType" : "image/png",
            "name" : "wheel"
        },
        {
            "bufferView" : 11,
            "mimeType" : "image/png",
            "name" : "spec17_windows"
        }
    ],
    "accessors" : [
        {
            "bufferView" : 0,
            "componentType" : 5126,
            "count" : 2560,
            "max" : [
                0.9574791193008423,
                0.9647383093833923,
                2.112583875656128
            ],
            "min" : [
                -0.9574794173240662,
                -0.4307851195335388,
                -2.0116591453552246
            ],
            "type" : "VEC3"
        },
        {
            "bufferView" : 1,
            "componentType" : 5126,
            "count" : 2560,
            "type" : "VEC2"
        },
        {
            "bufferView" : 2,
            "componentType" : 5123,
            "count" : 6681,
            "type" : "SCALAR"
        },
        {
            "bufferView" : 4,
            "componentType" : 5126,
            "count" : 518,
            "max" : [
                0.10043398290872574,
                0.3092125952243805,
                0.30921250581741333
            ],
            "min" : [
                -0.10043373703956604,
                -0.3092125356197357,
                -0.30921250581741333
            ],
            "type" : "VEC3"
        },
        {
            "bufferView" : 5,
            "componentType" : 5126,
            "count" : 518,
            "type" : "VEC2"
        },
        {
            "bufferView" : 6,
            "componentType" : 5123,
            "count" : 1860,
            "type" : "SCALAR"
        },
        {
            "bufferView" : 8,
            "componentType" : 5126,
            "count" : 68,
            "max" : [
                0.7652742862701416,
                0.8425971269607544,
                1.140251636505127
            ],
            "min" : [
                -0.7652744054794312,
                0.30907726287841797,
                -1.6919938325881958
            ],
            "type" : "VEC3"
        },
        {
            "bufferView" : 9,
            "componentType" : 5126,
            "count" : 68,
            "type" : "VEC2"
        },
        {
            "bufferView" : 10,
            "componentType" : 5123,
            "count" : 198,
            "type" : "SCALAR"
        },
        {
            "bufferView" : 12,
            "componentType" : 5126,
            "count" : 127,
            "max" : [
                0.9574791193008423,
                0.9040080308914185,
                2.0530786514282227
            ],
            "min" : [
                -0.9574794173240662,
                -0.3574276864528656,
                -2.0116591453552246
            ],
            "type" : "VEC3"
        },
        {
            "bufferView" : 13,
            "componentType" : 5126,
            "count" : 127,
            "type" : "VEC2"
        },
        {
            "bufferView" : 14,
            "componentType" : 5123,
            "count" : 588,
            "type" : "SCALAR"
        },
        {
            "bufferView" : 15,
            "componentType" : 5126,
            "count" : 34,
            "max" : [
                0.7742030620574951,
                0.42302405834198,
                -1.5017703771591187
            ],
            "min" : [
                -0.7742030620574951,
                0.26925021409988403,
                -1.7856663465499878
            ],
            "type" : "VEC3"
        },
        {
            "bufferView" : 16,
            "componentType" : 5126,
            "count" : 34,
            "type" : "VEC2"
        },
        {
            "bufferView" : 17,
            "componentType" : 5123,
            "count" : 66,
            "type" : "SCALAR"
        },
        {
            "bufferView" : 18,
            "componentType" : 5126,
            "count" : 12,
            "max" : [
                0.6878769397735596,
                0.37610065937042236,
                -1.666244626045227
            ],
            "min" : [
                -0.6878769397735596,
                0.2821054756641388,
                -1.7656760215759277
            ],
            "type" : "VEC3"
        },
        {
            "bufferView" : 19,
            "componentType" : 5126,
            "count" : 12,
            "type" : "VEC2"
        },
        {
            "bufferView" : 20,
            "componentType" : 5123,
            "count" : 24,
            "type" : "SCALAR"
        },
        {
            "bufferView" : 21,
            "componentType" : 5126,
            "count" : 44,
            "max" : [
                0.7742030620574951,
                0.38263702392578125,
                2.0051181316375732
            ],
            "min" : [
                -0.7742030620574951,
                0.03424929827451706,
                -1.7838186025619507
            ],
            "type" : "VEC3"
        },
        {
            "bufferView" : 22,
            "componentType" : 5126,
            "count" : 44,
            "type" : "VEC2"
        },
        {
            "bufferView" : 23,
            "componentType" : 5123,
            "count" : 72,
            "type" : "SCALAR"
        }
    ],
    "bufferViews" : [
        {
            "buffer" : 0,
            "byteLength" : 30720,
            "byteOffset" : 0,
            "target" : 34962
        },
        {
            "buffer" : 0,
            "byteLength" : 20480,
            "byteOffset" : 30720,
            "target" : 34962
        },
        {
            "buffer" : 0,
            "byteLength" : 13362,
            "byteOffset" : 51200,
            "target" : 34963
        },
        {
            "buffer" : 0,
            "byteLength" : 190668,
            "byteOffset" : 64564
        },
        {
            "buffer" : 0,
            "byteLength" : 6216,
            "byteOffset" : 255232,
            "target" : 34962
        },
        {
            "buffer" : 0,
            "byteLength" : 4144,
            "byteOffset" : 261448,
            "target" : 34962
        },
        {
            "buffer" : 0,
            "byteLength" : 3720,
            "byteOffset" : 265592,
            "target" : 34963
        },
        {
            "buffer" : 0,
            "byteLength" : 15476,
            "byteOffset" : 269312
        },
        {
            "buffer" : 0,
            "byteLength" : 816,
            "byteOffset" : 284788,
            "target" : 34962
        },
        {
            "buffer" : 0,
            "byteLength" : 544,
            "byteOffset" : 285604,
            "target" : 34962
        },
        {
            "buffer" : 0,
            "byteLength" : 396,
            "byteOffset" : 286148,
            "target" : 34963
        },
        {
            "buffer" : 0,
            "byteLength" : 21524,
            "byteOffset" : 286544
        },
        {
            "buffer" : 0,
            "byteLength" : 1524,
            "byteOffset" : 308068,
            "target" : 34962
        },
        {
            "buffer" : 0,
            "byteLength" : 1016,
            "byteOffset" : 309592,
            "target" : 34962
        },
        {
            "buffer" : 0,
            "byteLength" : 1176,
            "byteOffset" : 310608,
            "target" : 34963
        },
        {
            "buffer" : 0,
            "byteLength" : 408,
            "byteOffset" : 311784,
            "target" : 34962
        },
        {
            "buffer" : 0,
            "byteLength" : 272,
            "byteOffset" : 312192,
            "target" : 34962
        },
        {
            "buffer" : 0,
            "byteLength" : 132,
            "byteOffset" : 312464,
            "target" : 34963
        },
        {
            "buffer" : 0,
            "byteLength" : 144,
            "byteOffset" : 312596,
            "target" : 34962
        },
        {
            "buffer" : 0,
            "byteLength" : 96,
            "byteOffset" : 312740,
            "target" : 34962
        },
        {
            "buffer" : 0,
            "byteLength" : 48,
            "byteOffset" : 312836,
            "target" : 34963
        },
        {
            "buffer" : 0,
            "byteLength" : 528,
            "byteOffset" : 312884,
            "target" : 34962
        },
        {
            "buffer" : 0,
            "byteLength" : 352,
            "byteOffset" : 313412,
            "target" : 34962
        },
        {
            "buffer" : 0,
            "byteLength" : 144,
            "byteOffset" : 313764,
            "target" : 34963
        }
    ],
    "samplers" : [
        {
            "magFilter" : 9728,
            "minFilter" : 9984
        },
        {
            "magFilter" : 9729,
            "minFilter" : 9987
        }
    ],
    "buffers" : [
        {
            "byteLength" : 313908,
            "uri" : "data:application/octet-stream;base64,"
        }
    ]
}
